<svg id="Layer_1" data-name="Layer 1" xmlns="http://www.w3.org/2000/svg" viewBox="0 0 20 15"><path d="M19.92,5.35a4.56,4.56,0,0,0-3.86-3.62,4.38,4.38,0,0,0-4.6,2.55c-.15.31-.27.63-.44,1l-.83-1.41A21.57,21.57,0,0,1,8.88.61c-.06-.18-.17-.2-.33-.2-.57,0-1.14,0-1.71,0-.25,0-.31.09-.31.32,0,.47,0,.94,0,1.4,0,1.37,0,2.73,0,4.1A2.07,2.07,0,0,1,5.66,8a2,2,0,0,1-2.18.19A2,2,0,0,1,2.3,6.31c0-1.84,0-3.69,0-5.53C2.3.48,2.22.4,1.93.4,1.29.42.65.4,0,.39V7a2.58,2.58,0,0,1,.08.26,4.39,4.39,0,0,0,8.68-.38c.05-.42.05-.84.07-1.35A14.11,14.11,0,0,0,10,7.37a.91.91,0,0,0,.15.23.91.91,0,0,1,.21,1c-.15.56-.24,1.14-.35,1.71l-.78,3.56c-.16.74-.16.75.6.73a5.91,5.91,0,0,0,1.57-.06c0-.14.07-.27.1-.41.28-1.32.57-2.64.84-4,.05-.24.1-.3.34-.16a5.46,5.46,0,0,0,.95.44,4.63,4.63,0,0,0,6.29-3.27s0-.5,0-.94ZM17.69,6.52a2.24,2.24,0,0,1-2.28,1.94,4,4,0,0,1-2.36-.9.24.24,0,0,1-.12-.26,8.21,8.21,0,0,1,.58-2.06,2.14,2.14,0,0,1,2.67-1.16A2.25,2.25,0,0,1,17.69,6.52Z"/></svg>